<svg width="171" height="194" viewBox="0 0 171 194" fill="none" xmlns="http://www.w3.org/2000/svg">
<path fill-rule="evenodd" clip-rule="evenodd" d="M158.547 -86.8273C175.002 -63.2832 174.227 -31.7721 156.634 -9.06552L144.547 6.53518C136.228 17.2719 125.109 25.5056 112.412 30.3301L100.646 34.8009C77.6685 43.532 63.1025 66.2618 64.769 90.7859C65.8719 107.016 59.9682 122.94 48.5522 134.529L36.7264 146.534C30.8399 152.509 24.1822 157.673 16.9298 161.887L6.58991 167.896C-18.7975 182.648 -47.3543 191.094 -76.6822 192.522L-103.931 193.849C-104.207 193.862 -104.442 193.65 -104.455 193.374C-104.455 193.358 -104.455 193.341 -104.455 193.325C-104.443 193.071 -104.239 192.863 -103.98 192.85L-76.7308 191.523C-47.5628 190.103 -19.1616 181.703 6.08748 167.031L16.4274 161.023C23.6029 156.853 30.1899 151.744 36.014 145.832L47.8398 133.827C59.055 122.442 64.8548 106.798 63.7713 90.8537C62.0749 65.8904 76.9018 42.7536 100.291 33.8661L112.057 29.3953C124.581 24.6361 135.55 16.514 143.756 5.92271L155.844 -9.67799C173.169 -32.0384 173.932 -63.0693 157.727 -86.2544L158.547 -86.8273Z" fill="#664003" fill-opacity="0.4"/>
<path d="M-104.455 193.325C-104.443 193.071 -104.239 192.863 -103.98 192.85L-76.7308 191.523C-47.5628 190.103 -19.1616 181.703 6.08748 167.031L16.4274 161.023C23.6029 156.853 30.1899 151.744 36.014 145.832L47.8398 133.827C59.055 122.442 64.8548 106.798 63.7713 90.8537C62.0749 65.8904 76.9018 42.7536 100.291 33.8661L112.057 29.3953C124.581 24.6361 135.55 16.514 143.756 5.92271L155.844 -9.67799C173.169 -32.0384 173.932 -63.0693 157.727 -86.2544L158.547 -86.8273C71.528 -90.643 -26.9986 -104.482 -67.4754 -60.3598C-124.85 2.1823 -104.467 136.271 -104.455 193.325Z" fill="#664003" fill-opacity="0.4"/>
</svg>
